<?xml version="1.0" encoding="UTF-8" standalone="no"?><!DOCTYPE svg PUBLIC "-//W3C//DTD SVG 1.1//EN" "http://www.w3.org/Graphics/SVG/1.1/DTD/svg11.dtd"><svg width="100%" height="100%" viewBox="0 0 896 580" version="1.1" xmlns="http://www.w3.org/2000/svg" xmlns:xlink="http://www.w3.org/1999/xlink" xml:space="preserve" xmlns:serif="http://www.serif.com/" style="fill-rule:evenodd;clip-rule:evenodd;stroke-linejoin:round;stroke-miterlimit:1.41421;"><path d="M895.634,504.854c0,40.27 -34.098,74.599 -74.458,74.459l-746.422,0.424c-40.331,0 -74.388,-34.057 -74.388,-74.388l0,-103.661c14.762,0 29.095,-2.552 42.745,-8.256c56,-23.402 84.304,-90.147 60.899,-146.389c-5.713,-13.728 -14.172,-25.715 -24.66,-36.204c-10.489,-10.488 -22.476,-18.947 -36.204,-24.66c-13.658,-5.684 -28.019,-8.22 -42.78,-8.22l0.424,-103.238c-0.141,-40.488 34.061,-74.458 74.459,-74.458l745.573,0.424c40.255,-0.14 74.528,34.133 74.388,74.388l0,102.813c-61.013,0 -111.865,50.852 -111.865,111.865c0.141,60.88 50.9,111.864 111.865,111.864l0.424,103.237Zm-568.718,-399.166l-117.473,0l0,368.624l46.331,0l0,-144.31l74.434,0c22.082,-0.44 44.641,-4.949 63.444,-17.113c32.074,-20.751 43.46,-58.041 43.396,-94.538c-0.053,-29.902 -8.218,-59.872 -29.368,-81.902c-21.207,-22.089 -50.793,-30.761 -80.764,-30.761Zm0.254,40.002c9.065,0 18.081,1.404 26.457,5c32.3,13.868 40.319,52.879 36.061,84.387c-2.351,17.398 -9.693,34.511 -24.558,44.78c-11.171,7.718 -24.858,10.396 -38.214,10.396l-71.142,0l0,-144.563l71.396,0Z" style="fill:#f5a623;"/></svg>